<?xml version="1.0" encoding="UTF-8"?>
<svg version="1.1" xmlns="http://www.w3.org/2000/svg" width="1563" height="1563">
<path d="M0 0 C515.79 0 1031.58 0 1563 0 C1563 515.79 1563 1031.58 1563 1563 C1047.21 1563 531.42 1563 0 1563 C0 1047.21 0 531.42 0 0 Z " fill="#F0EAE6" transform="translate(0,0)"/>
<path d="M0 0 C11.55 -0.0825 23.1 -0.165 35 -0.25 C38.61324219 -0.28641602 42.22648438 -0.32283203 45.94921875 -0.36035156 C50.44726562 -0.37841797 50.44726562 -0.37841797 52.56958008 -0.3817749 C54.0155941 -0.38781732 55.46159125 -0.40167068 56.9074707 -0.42230225 C78.29980627 -0.71162386 97.36100049 4.77084464 113.1875 19.6875 C127.12907089 34.21907468 130.79668114 51.06158124 130.66210938 70.55249023 C130.18933326 85.41789341 126.08705456 98.11077003 117 110 C116.45601562 110.72445312 115.91203125 111.44890625 115.3515625 112.1953125 C104.89700927 125.10398621 89.00081613 131.29907668 73 134 C67.17066567 134.6015678 61.32032133 134.47291421 55.46875 134.390625 C54.03548816 134.38471926 52.60221757 134.38065377 51.16894531 134.37841797 C45.9458291 134.35773125 40.72289943 134.30188919 35.5 134.25 C23.785 134.1675 12.07 134.085 0 134 C0 89.78 0 45.56 0 0 Z " fill="#030303" transform="translate(747,665)"/>
<path d="M0 0 C12.045 -0.04125 24.09 -0.0825 36.5 -0.125 C40.29048828 -0.14320801 44.08097656 -0.16141602 47.98632812 -0.18017578 C52.64746094 -0.18920898 52.64746094 -0.18920898 54.83581543 -0.19088745 C56.35047585 -0.19394035 57.86513169 -0.20093629 59.37976074 -0.21115112 C61.68620124 -0.22591619 63.99234704 -0.22780783 66.29882812 -0.22705078 C67.59566528 -0.231492 68.89250244 -0.23593323 70.2286377 -0.24050903 C83.10573593 0.58069514 94.09210735 6.48026542 102.75 15.875 C110.02726581 24.57788052 112.57467074 34.02412736 112.37109375 45.3046875 C111.20796712 56.88698007 105.34834905 66.72115643 96.47265625 74.1015625 C92.07702043 77.31401214 88.1900182 79.33206625 83 81 C93.89921538 97.44300367 93.89921538 97.44300367 105 113.75 C108.25513174 118.46201201 111.49746335 123.1810809 114.6875 127.9375 C115.33074219 128.89527344 115.97398437 129.85304688 116.63671875 130.83984375 C118 133 118 133 118 134 C114.0018973 134.32191931 110.0071311 134.51551054 106 134.6875 C104.87464844 134.77966797 103.74929688 134.87183594 102.58984375 134.96679688 C94.37227701 135.23110458 94.37227701 135.23110458 90.68139648 131.91992188 C88.56832061 129.04223429 86.77868196 126.09467753 85 123 C83.69037889 121.0362194 82.36871344 119.08041793 81.03515625 117.1328125 C79.70872446 115.13167346 78.38454162 113.12904209 77.0625 111.125 C71.94978235 103.40236852 66.79147608 95.73061019 61.40625 88.1953125 C60 86 60 86 60 84 C46.8 84 33.6 84 20 84 C20 100.5 20 117 20 134 C13.4 134 6.8 134 0 134 C0 89.78 0 45.56 0 0 Z " fill="#020202" transform="translate(449,665)"/>
<path d="M0 0 C11.941875 -0.0825 23.88375 -0.165 36.1875 -0.25 C39.93246826 -0.28641602 43.67743652 -0.32283203 47.53588867 -0.36035156 C52.17443848 -0.37841797 52.17443848 -0.37841797 54.3585968 -0.3817749 C55.85640747 -0.38784336 57.35420091 -0.40175473 58.85188293 -0.42230225 C74.45808439 -0.62536356 87.15292538 1.90446336 98.99609375 12.84375 C107.21107298 21.46506154 110.40417724 31.75989027 110.2734375 43.421875 C109.34655216 55.55083173 104.03718114 65.38021316 95.375 73.75 C87.95643907 79.88849552 78.34167492 84.1365278 68.68066406 84.11352539 C67.61986633 84.11344986 66.5590686 84.11337433 65.46612549 84.11329651 C64.32746033 84.10813522 63.18879517 84.10297394 62.015625 84.09765625 C60.84489441 84.0962413 59.67416382 84.09482635 58.46795654 84.09336853 C54.72861171 84.0877709 50.98932674 84.0752188 47.25 84.0625 C44.71484461 84.0574847 42.17968829 84.05292184 39.64453125 84.04882812 C33.42964588 84.03865313 27.21488996 84.01907708 21 84 C21 100.5 21 117 21 134 C14.07 134 7.14 134 0 134 C0 89.78 0 45.56 0 0 Z " fill="#040404" transform="translate(320,665)"/>
<path d="M0 0 C7.6725 -0.061875 15.345 -0.12375 23.25 -0.1875 C25.64668945 -0.21481201 28.04337891 -0.24212402 30.51269531 -0.27026367 C32.45116678 -0.2790404 34.38964386 -0.28668151 36.328125 -0.29296875 C37.79064697 -0.3159906 37.79064697 -0.3159906 39.28271484 -0.33947754 C52.79805768 -0.34451306 66.07826877 3.49497855 76.1171875 12.86328125 C86.60532013 24.76578861 89.1253098 38.51575096 88.21142578 53.83886719 C87.00164881 66.20485536 80.98868434 77.36239741 71.48046875 85.24609375 C51.11401601 99.64693986 22.77730019 94 0 94 C0 62.98 0 31.96 0 0 Z " fill="#F0EAE6" transform="translate(768,685)"/>
<path d="M0 0 C2.23083453 2.23083453 2.60269888 3.46321034 3.48046875 6.4453125 C3.75366943 7.34983154 4.02687012 8.25435059 4.30834961 9.1862793 C4.59846924 10.15605713 4.88858887 11.12583496 5.1875 12.125 C12.05701726 34.26331067 20.74285326 53.19934288 42.0625 64.6875 C53.75935943 70.74896709 66.22757933 74.85517072 79 78 C78.67 78.66 78.34 79.32 78 80 C76.00309878 80.66062898 73.97461877 81.22636631 71.9375 81.75 C50.74830868 87.58564111 28.50185932 96.03149424 17 116 C9.77102338 129.15701873 4.96771002 142.54318425 1 157 C-2.13539757 153.50421191 -3.09362058 149.68462012 -4.25 145.25 C-7.84074562 132.37274754 -12.94050753 116.8931268 -22.703125 107.33203125 C-24 106 -24 106 -24 104 C-24.59296875 103.72414063 -25.1859375 103.44828125 -25.796875 103.1640625 C-27.8850959 102.06071174 -29.44582688 100.88409808 -31.25 99.375 C-43.02165627 90.49765922 -56.98495367 86.05772013 -70.87646484 81.69238281 C-73.29875534 80.90259023 -75.6565606 79.99947933 -78 79 C-75.67848844 76.67848844 -74.52435034 76.49214298 -71.375 75.75 C-48.94726882 69.88654087 -27.40816857 60.26384847 -15.04296875 39.75390625 C-8.1714477 27.29228249 -4.24819813 13.51591527 0 0 Z " fill="#020202" transform="translate(653,649)"/>
<path d="M0 0 C6.6 0 13.2 0 20 0 C20.0093457 2.35535889 20.01869141 4.71071777 20.02832031 7.13745117 C20.06225606 14.96464185 20.11789594 22.79157348 20.18390274 30.61855602 C20.2232253 35.35891691 20.25548781 40.09909626 20.27099609 44.83959961 C20.28626375 49.42398601 20.32088565 54.00787281 20.36830902 58.59203529 C20.38301943 60.33125755 20.391035 62.07055118 20.39188385 63.80983543 C20.40687088 79.1359218 22.07463396 92.24461499 33 104 C43.00046474 112.40245233 54.11717552 114.91777378 67 114 C78.00726477 112.32188987 87.34683345 108.01860151 94.46484375 99.28515625 C99.86497215 91.24679719 102.13221734 83.57515355 102.20532227 74.01855469 C102.21522186 73.2181778 102.22512146 72.4178009 102.23532104 71.59317017 C102.26685942 68.95276834 102.29166313 66.31234853 102.31640625 63.671875 C102.3369824 61.83912697 102.35797904 60.00638361 102.37937927 58.17364502 C102.43453171 53.35355418 102.48397108 48.533421 102.53222656 43.71325684 C102.58249146 38.79317463 102.63815148 33.87315379 102.69335938 28.953125 C102.80085745 19.30213385 102.90182228 9.65109047 103 0 C109.6 0 116.2 0 123 0 C123.06802442 10.61459999 123.12295885 21.22905303 123.15543652 31.84382248 C123.17103134 36.77373158 123.19215547 41.70348262 123.22631836 46.63330078 C123.25913384 51.39900496 123.27689941 56.16455799 123.28463173 60.93036652 C123.29013568 62.74026109 123.30088252 64.55014825 123.31719017 66.35997772 C123.40345938 76.33937 123.17696885 85.41302139 120 95 C119.62359375 96.14855469 119.2471875 97.29710937 118.859375 98.48046875 C116.1031223 105.20611353 112.8285032 110.57187875 108 116 C107.50113281 116.60328125 107.00226563 117.2065625 106.48828125 117.828125 C96.45937758 129.04432961 81.20804687 134.45040412 66.51171875 135.33984375 C48.51152729 135.95178098 32.30179594 132.04310906 18.3125 120.18359375 C7.19506429 109.68587997 0.28012751 96.20800925 -0.17398071 80.82012939 C-0.25683291 75.68989089 -0.22520639 70.56027061 -0.1953125 65.4296875 C-0.19157659 63.5382604 -0.18873235 61.64683135 -0.18673706 59.75540161 C-0.17914606 54.80707337 -0.1595371 49.85886484 -0.1373291 44.9105835 C-0.1167724 39.84925963 -0.10771444 34.78791619 -0.09765625 29.7265625 C-0.07628643 19.81764761 -0.04114183 9.90885255 0 0 Z " fill="#020202" transform="translate(921,665)"/>
<path d="M0 0 C2.69330509 2.16312693 5.08487358 4.50627367 7.48046875 6.9921875 C6.0146354 11.53290115 3.43515142 14.75485719 0.35546875 18.3046875 C-0.34642578 19.12936523 -0.34642578 19.12936523 -1.0625 19.97070312 C-2.20905608 21.31615159 -3.36350576 22.6548665 -4.51953125 23.9921875 C-5.53015625 23.1671875 -6.54078125 22.3421875 -7.58203125 21.4921875 C-11.58468082 18.47944051 -15.79417506 16.08596299 -20.20703125 13.7421875 C-20.84842041 13.40123047 -21.48980957 13.06027344 -22.15063477 12.70898438 C-35.14321144 5.92174193 -51.29364848 4.56325277 -65.51953125 8.5546875 C-79.87725978 13.77236267 -88.85702119 22.67387633 -95.390625 36.29296875 C-99.93513767 47.15891427 -98.68861018 62.20500999 -94.33203125 72.91015625 C-89.37137477 83.7615923 -82.26866844 90.81188042 -71.51953125 95.9921875 C-68.2273396 97.20310857 -64.92567335 98.16156688 -61.51953125 98.9921875 C-60.91149658 99.16347168 -60.30346191 99.33475586 -59.67700195 99.51123047 C-42.72028453 103.29132929 -25.92908267 98.94947622 -11.51953125 89.9921875 C-9.12229648 88.38984733 -6.82146632 86.73142733 -4.51953125 84.9921875 C-1.14584444 88.06731796 0.98948837 91.27737606 3.23046875 95.2421875 C3.8440625 96.31984375 4.45765625 97.3975 5.08984375 98.5078125 C5.54875 99.32765625 6.00765625 100.1475 6.48046875 100.9921875 C-3.55845187 111.54311136 -15.81964717 116.09227867 -29.51953125 119.9921875 C-30.16825195 120.18868896 -30.81697266 120.38519043 -31.48535156 120.58764648 C-36.88286387 122.11188119 -42.05445585 122.34001264 -47.64453125 122.3046875 C-48.56741943 122.29977295 -49.49030762 122.2948584 -50.44116211 122.28979492 C-69.67587696 121.96287351 -87.11642843 115.14690585 -101.20703125 101.9296875 C-115.36692284 87.16294341 -119.924295 69.11494478 -119.671875 49.1171875 C-119.53805904 44.22461061 -118.89813762 39.69379303 -117.51953125 34.9921875 C-117.16955078 33.72761719 -117.16955078 33.72761719 -116.8125 32.4375 C-110.74972224 13.33559748 -97.17369632 1.11464412 -80.14453125 -8.32421875 C-77.96546456 -9.37660891 -75.80750862 -10.21822159 -73.51953125 -11.0078125 C-72.45863281 -11.37777344 -71.39773438 -11.74773438 -70.3046875 -12.12890625 C-46.29598088 -19.53393956 -20.43268008 -14.21147446 0 0 Z " fill="#030303" transform="translate(1206.51953125,679.0078125)"/>
<path d="M0 0 C36.96 0 73.92 0 112 0 C112 6.6 112 13.2 112 20 C96.82 20 81.64 20 66 20 C66 57.62 66 95.24 66 134 C59.07 134 52.14 134 45 134 C45 96.38 45 58.76 45 20 C30.15 20 15.3 20 0 20 C0 13.4 0 6.8 0 0 Z " fill="#040404" transform="translate(1245,665)"/>
<path d="M0 0 C6.79593712 -0.09218302 13.58967637 -0.17171819 20.38574219 -0.21972656 C22.69408549 -0.23975417 25.00237862 -0.26698439 27.31054688 -0.30175781 C30.64205357 -0.35066594 33.97288538 -0.37305811 37.3046875 -0.390625 C38.834991 -0.42159271 38.834991 -0.42159271 40.39620972 -0.45318604 C48.54897657 -0.45569878 55.78364959 1.3143014 62.375 6.3125 C67.32381785 11.37914684 69.23474177 14.9039856 69.5625 21.9375 C69.30299572 28.8662644 67.08017103 32.91982897 62.25 37.75 C57.61266381 41.90761176 54.06017504 44.2574294 47.68066406 44.22705078 C46.61986633 44.22689972 45.5590686 44.22674866 44.46612549 44.22659302 C43.32746033 44.21627045 42.18879517 44.20594788 41.015625 44.1953125 C39.25952911 44.19106766 39.25952911 44.19106766 37.46795654 44.18673706 C33.72853375 44.17554156 29.98935041 44.15043776 26.25 44.125 C23.71484721 44.1149694 21.17969066 44.10584369 18.64453125 44.09765625 C12.42952101 44.07730586 6.21502857 44.03815502 0 44 C0 29.48 0 14.96 0 0 Z " fill="#EFE9E5" transform="translate(470,685)"/>
<path d="M0 0 C6.92088002 -0.13836635 13.83689123 -0.25761932 20.75805664 -0.32958984 C23.10815767 -0.3596138 25.45814805 -0.4004464 27.80786133 -0.45263672 C31.20161353 -0.52608521 34.59387445 -0.55960187 37.98828125 -0.5859375 C39.02519608 -0.61690521 40.0621109 -0.64787292 41.13044739 -0.67977905 C48.95015842 -0.6833221 54.64878935 1.40815669 61 6 C65.50040783 10.60536616 67.35544281 14.58495901 67.625 21.0625 C67.20573734 28.39493802 65.09059652 33.33532325 59.6875 38.3125 C52.86119542 44.0809753 46.16840946 44.42110439 37.59765625 44.29296875 C36.51995468 44.28872391 35.44225311 44.28447906 34.33189392 44.28010559 C30.90850254 44.26338719 27.4857118 44.22574683 24.0625 44.1875 C21.73373249 44.17244436 19.40495571 44.1587575 17.07617188 44.14648438 C11.38370011 44.11606504 5.69251802 44.0573286 0 44 C0 29.48 0 14.96 0 0 Z " fill="#EFE9E5" transform="translate(341,685)"/>
<path d="M0 0 C11 0 11 0 13.91015625 2.38671875 C14.97556641 4.02060547 14.97556641 4.02060547 16.0625 5.6875 C16.8791199 6.88225509 17.69686234 8.07624357 18.515625 9.26953125 C19.12374023 10.19499756 19.12374023 10.19499756 19.74414062 11.13916016 C21.78636036 14.16517082 24.05576545 17.00760468 26.3125 19.875 C29.65133982 24.19065743 32.82333823 28.55267352 36 33 C36.33 22.44 36.66 11.88 37 1 C40.3 1 43.6 1 47 1 C47 18.16 47 35.32 47 53 C37 53 37 53 34.36328125 50.859375 C33.68652344 49.83328125 33.00976562 48.8071875 32.3125 47.75 C31.50015943 46.57320852 30.68624306 45.39750389 29.87109375 44.22265625 C29.42878418 43.56281738 28.98647461 42.90297852 28.53076172 42.22314453 C26.17083461 38.79579266 23.64906883 35.49411627 21.13696289 32.17749023 C18.07528865 28.1303964 15.04040983 24.06309313 12 20 C11.67 30.89 11.34 41.78 11 53 C7.37 53 3.74 53 0 53 C0 35.51 0 18.02 0 0 Z " fill="#070707" transform="translate(818,910)"/>
<path d="M0 0 C3.63 0 7.26 0 11 0 C11 17.49 11 34.98 11 53 C7.37 53 3.74 53 0 53 C0 46.07 0 39.14 0 32 C-7.92 32 -15.84 32 -24 32 C-24 38.93 -24 45.86 -24 53 C-27.63 53 -31.26 53 -35 53 C-35 35.84 -35 18.68 -35 1 C-31.7 1 -28.4 1 -25 1 C-25 7.93 -25 14.86 -25 22 C-16.75 22 -8.5 22 0 22 C0 14.74 0 7.48 0 0 Z " fill="#080807" transform="translate(691,910)"/>
<path d="M0 0 C3.63 0 7.26 0 11 0 C11.00410889 1.05912598 11.00821777 2.11825195 11.01245117 3.20947266 C11.03430283 7.15722627 11.08865364 11.1039917 11.15258789 15.05126953 C11.1757156 16.75625096 11.19015133 18.46137419 11.19555664 20.16650391 C11.20488512 22.62491687 11.24595525 25.08111578 11.29296875 27.5390625 C11.2890361 28.29555084 11.28510345 29.05203918 11.28105164 29.83145142 C11.43571904 35.50295973 12.92956685 38.03636118 17 42 C21.22025355 43.71012014 25.10215542 43.28265478 29.375 41.9375 C32.61436711 39.54653856 33.48741819 37.72273838 35 34 C35.31166518 31.32541648 35.48699924 28.86794103 35.51171875 26.1953125 C35.52966995 25.4713327 35.54762115 24.74735291 35.56611633 24.00143433 C35.61991138 21.70934723 35.65401402 19.41746459 35.6875 17.125 C35.72070049 15.56247173 35.75519266 13.99997034 35.79101562 12.4375 C35.87561923 8.62514831 35.94257559 4.812854 36 1 C39.3 1 42.6 1 46 1 C46.09945752 6.12282759 46.17174409 11.24508354 46.21972656 16.36865234 C46.23974522 18.10866089 46.26696886 19.84860299 46.30175781 21.58837891 C46.35070952 24.10075346 46.37306587 26.61223275 46.390625 29.125 C46.41127014 29.89303955 46.43191528 30.6610791 46.45318604 31.45239258 C46.45608974 38.56607577 44.22297071 43.72650723 39.25 48.8125 C32.21930249 53.54470025 25.49219851 55.23844562 17 54 C10.93568241 52.06183032 6.44609654 49.29459583 2.9375 43.94140625 C0.29893049 38.47736856 -0.27721573 33.54133053 -0.1953125 27.5390625 C-0.1924826 26.74849457 -0.18965271 25.95792664 -0.18673706 25.1434021 C-0.17560955 22.63710916 -0.15051926 20.13118355 -0.125 17.625 C-0.11496058 15.91797394 -0.10583641 14.21094223 -0.09765625 12.50390625 C-0.07569463 8.3357976 -0.04121671 4.16796092 0 0 Z " fill="#050505" transform="translate(737,910)"/>
<path d="M0 0 C15.18 0 30.36 0 46 0 C46 2.97 46 5.94 46 9 C40.06 9 34.12 9 28 9 C28 23.19 28 37.38 28 52 C24.7 52 21.4 52 18 52 C18 37.81 18 23.62 18 9 C12.06 9 6.12 9 0 9 C0 6.03 0 3.06 0 0 Z " fill="#000000" transform="translate(898,911)"/>
</svg>
